<?xml version="1.0" standalone="no"?>
<!DOCTYPE svg PUBLIC "-//W3C//DTD SVG 20010904//EN"
 "http://www.w3.org/TR/2001/REC-SVG-20010904/DTD/svg10.dtd">
<svg version="1.0" xmlns="http://www.w3.org/2000/svg"
 width="672.000000pt" height="78.000000pt" viewBox="0 0 672.000000 78.000000"
 preserveAspectRatio="xMidYMid meet">
<metadata>
Created by potrace 1.16, written by Peter Selinger 2001-2019
</metadata>
<g transform="translate(0.000000,78.000000) scale(0.100000,-0.100000)"
fill="#000000" stroke="none">
<path d="M798 653 l-38 -4 0 -154 c0 -103 -5 -182 -16 -235 -9 -45 -13 -84 -9
-88 3 -4 94 -8 201 -10 l194 -3 0 45 0 45 -122 3 -123 3 -3 77 c-3 70 23 250
43 301 5 13 2 17 -13 17 -11 0 -32 2 -48 4 -16 2 -46 1 -66 -1z"/>
<path d="M1305 637 c-100 -49 -147 -125 -146 -238 1 -83 22 -139 69 -180 55
-49 97 -62 192 -63 72 0 93 4 136 26 27 15 56 34 64 43 11 14 9 20 -21 45 -41
35 -43 36 -81 9 -44 -32 -107 -36 -160 -10 -55 26 -82 70 -81 131 1 93 58 151
152 158 48 3 62 0 94 -22 l39 -27 33 21 c70 43 68 63 -9 102 -31 16 -65 22
-136 25 -85 4 -100 2 -145 -20z"/>
<path d="M1835 645 c-131 -49 -196 -194 -153 -339 16 -53 81 -118 134 -134
161 -48 303 -2 369 118 27 49 30 64 30 140 -1 74 -4 90 -27 125 -16 25 -45 51
-78 69 -45 25 -67 29 -144 32 -64 3 -103 -1 -131 -11z m193 -105 c36 -22 71
-87 72 -131 0 -77 -68 -149 -148 -156 -150 -13 -219 163 -105 268 35 33 47 37
103 38 29 1 57 -6 78 -19z"/>
<path d="M3023 647 c-56 -21 -121 -74 -144 -119 -26 -51 -36 -147 -20 -204 18
-67 51 -106 116 -139 52 -26 71 -30 140 -30 67 0 89 5 137 28 71 35 114 85
135 156 18 64 13 160 -11 207 -21 42 -77 83 -134 100 -54 17 -175 17 -219 1z
m188 -110 c48 -32 71 -81 66 -140 -7 -80 -64 -137 -144 -144 -145 -12 -218
151 -115 261 34 36 56 45 113 45 32 1 56 -6 80 -22z"/>
<path d="M3519 653 l-37 -4 -5 -197 c-3 -120 -10 -212 -18 -234 -7 -21 -9 -41
-5 -45 4 -5 95 -9 202 -11 l194 -3 0 45 0 45 -122 3 -123 3 -3 68 c-2 37 5
109 14 160 27 146 28 167 11 167 -8 0 -27 2 -43 4 -16 2 -45 1 -65 -1z"/>
<path d="M4234 653 l-42 -4 -4 -182 c-3 -101 -11 -205 -18 -234 -7 -29 -10
-56 -6 -60 4 -4 38 -9 77 -11 l69 -4 0 127 c0 88 7 164 21 242 12 63 20 115
18 117 -8 7 -76 12 -115 9z"/>
<path d="M4464 652 l-31 -3 -6 -167 c-3 -92 -12 -198 -21 -237 -8 -38 -13 -72
-10 -74 3 -3 36 -7 75 -9 l69 -4 0 128 c0 71 4 135 8 142 11 16 69 -52 146
-171 61 -92 78 -103 156 -95 l33 3 3 130 c2 79 11 173 23 239 12 60 20 111 18
112 -4 5 -78 8 -119 6 l-38 -2 0 -147 0 -148 -25 30 c-14 17 -55 77 -92 135
-36 58 -71 110 -77 116 -13 13 -67 21 -112 16z"/>
<path d="M5054 652 l-51 -3 -6 -197 c-3 -118 -10 -212 -18 -234 -7 -21 -9 -41
-5 -45 4 -5 72 -9 152 -11 164 -4 223 8 292 58 58 42 84 98 90 190 6 116 -26
172 -122 215 -41 19 -73 24 -166 27 -63 2 -138 2 -166 0z m256 -114 c58 -30
83 -75 77 -141 -8 -95 -66 -137 -189 -137 l-78 0 0 75 c0 65 5 104 26 203 4
20 10 22 62 22 40 0 71 -7 102 -22z"/>
<path d="M5633 653 l-33 -4 0 -127 c-1 -78 -8 -169 -20 -237 -10 -60 -16 -112
-14 -115 3 -3 135 -6 294 -7 l288 -3 52 80 c29 45 57 79 62 78 5 -2 26 -35 47
-73 21 -37 46 -72 57 -76 23 -9 144 -12 144 -3 0 4 -36 56 -81 116 -44 61 -83
116 -85 123 -5 12 118 159 175 209 11 11 21 23 21 28 0 5 -37 8 -82 6 l-82 -3
-45 -64 c-25 -35 -50 -64 -55 -63 -5 0 -25 28 -43 63 -18 35 -35 65 -37 67 -6
5 -525 10 -563 5z m480 -123 c42 -60 77 -115 77 -122 0 -15 -179 -220 -197
-226 -9 -2 -13 8 -13 32 l0 36 -135 0 -136 0 3 57 3 58 112 3 112 3 7 34 c3
18 3 38 -1 44 -4 7 -49 11 -116 11 l-111 0 7 33 c14 72 6 67 125 67 130 0 155
7 163 49 4 17 10 31 14 30 5 0 43 -49 86 -109z"/>
<path d="M346 598 c-96 -216 -134 -291 -197 -383 -33 -48 -26 -53 62 -54 l56
-1 24 53 24 52 99 3 c111 3 123 -2 132 -58 7 -44 19 -50 106 -50 l58 0 -26 57
c-63 138 -97 230 -122 328 l-26 105 -83 0 -83 0 -24 -52z"/>
<path d="M2300 493 c0 -104 -5 -183 -16 -235 -9 -44 -13 -82 -9 -86 3 -3 37
-8 76 -10 l69 -4 0 101 0 101 111 0 111 0 -6 -57 c-4 -32 -12 -73 -18 -91 -5
-18 -7 -36 -3 -40 3 -3 37 -8 76 -10 l69 -4 0 114 c0 71 8 156 20 224 30 165
34 154 -55 154 l-74 0 -3 -92 -3 -93 -99 -3 c-55 -1 -103 1 -108 6 -5 5 -2 37
7 73 26 112 28 109 -65 109 l-80 0 0 -157z"/>
<path d="M3892 358 l3 -43 100 0 100 0 3 43 3 42 -106 0 -106 0 3 -42z"/>
</g>
</svg>
